<?xml version="1.0" encoding="UTF-8"?>
<svg data-bbox="0 -0.002 116.99 20.215" viewBox="0 0 117 20.19" xmlns="http://www.w3.org/2000/svg" data-type="color">
    <g>
        <path d="M24.87 3.16h4.37v4.69h4.13V3.16h4.37V17h-4.37v-5.36h-4.13V17h-4.37zm19.08 0h4.43L53.14 17H48.8l-.53-1.84h-4.32L43.43 17h-4.24zm.81 9.12h2.75l-1.4-4.95zm7.57-9.12h4.41l2.34 9.2 2.42-9.2h4.39L61.28 17h-4.39zm15.35 0h10.85v3.23h-6.48v2h5.46v3.23h-5.46v2.17h6.74v3.23H67.68zm13.34 0h4.37v10.62h5.98v3.23H81.02zm12.33 0h4.37v10.62h5.98v3.23H93.35zm19.14 4.01c-.11-.79-.71-1.19-1.79-1.19q-1.29 0-1.35.75c-.01.31.13.56.43.77.3.2.7.37 1.21.51.5.13.99.26 1.46.37 1.56.38 2.71.9 3.45 1.55s1.1 1.56 1.09 2.71c0 1.13-.29 2.04-.87 2.76q-.87 1.065-2.28 1.53c-.94.31-1.95.46-3.04.46-1.62 0-3-.43-4.12-1.3-1.13-.86-1.73-1.99-1.8-3.37h4.19c.1.55.35.93.77 1.15.41.22.84.33 1.28.33 1.07-.05 1.64-.37 1.7-.94.05-.4-.14-.7-.58-.91s-1.11-.43-2.02-.66c-1.14-.29-2.05-.6-2.73-.9-.68-.31-1.23-.77-1.67-1.37-.44-.61-.65-1.41-.64-2.41.02-1.24.55-2.25 1.58-3.03s2.43-1.17 4.22-1.17c.95 0 1.82.14 2.61.41.79.28 1.47.74 2.02 1.4s.9 1.51 1.03 2.56h-4.15Z" fill="#ed1c24" data-color="1"/>
        <path d="M4.07 6.05c-.07 0-.13 0-.19-.01-.4-.06-.71-.3-.86-.67-.07-.18-.1-.36-.1-.56 0-.28.07-.57.13-.78.33-1.17.71-2 1.15-2.52.08-.1.17-.19.26-.26l.03-.02s.02-.02.03-.02q.24-.18.48-.18c.37 0 .76.33 1.1.94.36.63.66 1.55.89 2.66.08.38.14.76.2 1.17l-.48.03c-.54.04-1.03.08-1.52.12-.24.02-.48.04-.71.07h-.06c-.12.02-.24.03-.35.03" fill="#f25746" data-color="2"/>
        <path d="M4.7 19.04c-.16 0-.32-.06-.48-.19s-.01-.01-.01-.01H4.2l-.01-.02s-.01 0-.02-.01a1.7 1.7 0 0 1-.25-.27c-.44-.56-.8-1.44-1.1-2.68-.06-.27-.13-.57-.13-.85 0-.21.03-.41.1-.6.15-.41.44-.69.83-.8.11-.03.22-.04.34-.04.08 0 .15 0 .24.01.24.02.49.05.75.07.51.04 1.05.09 1.6.12.19.01.39.03.58.04-.08.51-.17.98-.27 1.44-.26 1.15-.6 2.11-.98 2.77-.37.65-.8 1.02-1.17 1.02" fill="#ba151b" data-color="3"/>
        <path d="M20.89 10.04c-.01-2.33-.77-4.64-2.12-6.5C17.67 2.03 16.25.88 14.6.15c-.13-.05-.56-.17-.67-.15-.41.08-.7.46-.79.96-.02.12-.03.25-.03.38-.02.25-.03.51-.04.8v.21c-.01.32-.03.81-.06 1-.29 1.65-1.95 2.7-3.4 2.76-.99.04-1.95.09-2.87.15-.51.04-1.02.08-1.51.12-.24.02-.47.04-.71.07h-.05q-.195.03-.39.03c-.09 0-.18 0-.25-.02-.55-.08-.99-.42-1.2-.94-.09-.23-.14-.47-.14-.73 0-.34.08-.66.15-.9.13-.45.3-1 .55-1.55-.83.85-1.53 1.84-2.05 2.91C.42 6.71.03 8.33 0 9.94v.21c0 2.83 1.05 5.5 2.9 7.51-.25-.59-.41-1.21-.52-1.7-.07-.3-.14-.62-.14-.95 0-.26.04-.51.13-.75.2-.55.6-.93 1.14-1.07q.21-.06.45-.06c.09 0 .18 0 .29.02.24.02.48.05.74.07.5.04 1.04.09 1.59.12.96.07 1.97.12 3.01.16.8.03 1.63.36 2.28.9.69.57 1.12 1.33 1.23 2.13.02.17.05.65.06 1 0 .12 0 .21.01.27.02.4.05.76.07 1.09l.03.4c.09.46.36.81.74.9q.195.045.39 0c.1-.05.21-.09.31-.14 1.63-.76 3.03-1.92 4.11-3.43 1.34-1.87 2.07-4.18 2.07-6.5v-.06Z" fill="#ed1c24" data-color="1"/>
    </g>
</svg>
